<svg width="477" height="528" viewBox="0 0 477 528" fill="none" xmlns="http://www.w3.org/2000/svg">
<path d="M360.985 144.977L356.264 151.744L363.168 152.291L360.985 144.977Z" fill="#B8B8B8"/>
<path d="M403.774 120.027L397.834 122.421L401.727 127.651L406.435 124.146L403.774 120.027Z" fill="#272727"/>
<path d="M395.337 164.928L390.429 169.798L397.464 172.688L400.541 167.55L395.337 164.928Z" fill="#68FFE4"/>
<path d="M380.286 124.509L374.548 125.528L376.807 132.388L382.024 131.758L380.286 124.509Z" fill="#68FFE4"/>
<path d="M311.603 151.255L310.224 154.317L315.884 157.006L317.274 150.691L311.603 151.255Z" fill="#B8B8B8"/>
<path d="M329.235 180.398L324.996 180.707L326.613 185.603L330.852 185.295L329.235 180.398Z" fill="#272727"/>
<path d="M337.401 140.592L332.375 139.855L335.091 146.772L337.401 140.592Z" fill="#68FFE4"/>
<path d="M367.944 401.748L363.223 408.515L370.137 409.063L367.944 401.748Z" fill="#B8B8B8"/>
<path d="M402.296 421.699L397.388 426.569L404.423 429.459L407.5 424.321L402.296 421.699Z" fill="#68FFE4"/>
<path d="M318.564 408.026L317.185 411.089L322.855 413.779L324.245 407.464L318.564 408.026Z" fill="#B8B8B8"/>
<path d="M336.194 437.17L331.955 437.479L333.572 442.375L337.811 442.066L336.194 437.17Z" fill="#272727"/>
<path d="M344.362 397.363L339.346 396.628L342.05 403.554L344.362 397.363Z" fill="#68FFE4"/>
<path d="M148.983 250.053L144.264 256.811L151.177 257.359L148.983 250.053Z" fill="#B8B8B8"/>
<path d="M183.335 269.994L178.427 274.864L185.461 277.764L188.538 272.626L183.335 269.994Z" fill="#68FFE4"/>
<path d="M117.233 285.475L112.994 285.783L114.611 290.68L118.85 290.371L117.233 285.475Z" fill="#272727"/>
<path d="M125.399 245.668L120.383 244.933L123.089 251.848L125.399 245.668Z" fill="#68FFE4"/>
<path d="M202.874 133.535L198.163 140.304L205.066 140.85L202.874 133.535Z" fill="#B8B8B8"/>
<path d="M245.671 108.596L239.732 110.98L243.625 116.21L248.333 112.705L245.671 108.596Z" fill="#272727"/>
<path d="M237.235 153.487L232.327 158.357L239.353 161.246L242.44 156.109L237.235 153.487Z" fill="#68FFE4"/>
<path d="M222.184 113.068L216.445 114.097L218.706 120.947L223.922 120.317L222.184 113.068Z" fill="#68FFE4"/>
<path d="M402.598 222.55L397.879 229.307L404.792 229.855L402.598 222.55Z" fill="#B8B8B8"/>
<path d="M436.952 242.49L432.044 247.36L439.078 250.26L442.157 245.112L436.952 242.49Z" fill="#68FFE4"/>
<path d="M421.901 202.081L416.163 203.1L418.424 209.95L423.64 209.32L421.901 202.081Z" fill="#68FFE4"/>
<path d="M153.501 139.814L152.123 142.877L157.783 145.566L159.173 139.25L153.501 139.814Z" fill="#B8B8B8"/>
<path d="M171.133 168.958L166.894 169.267L168.501 174.161L172.741 173.853L171.133 168.958Z" fill="#272727"/>
<path d="M179.29 129.15L174.273 128.415L176.988 135.342L179.29 129.15Z" fill="#68FFE4"/>
<path d="M259.653 398.566L254.934 405.323L261.837 405.87L259.653 398.566Z" fill="#B8B8B8"/>
<path d="M294.005 418.506L289.097 423.376L296.131 426.277L299.208 421.139L294.005 418.506Z" fill="#68FFE4"/>
<path d="M210.271 404.843L208.892 407.906L214.552 410.595L215.942 404.28L210.271 404.843Z" fill="#B8B8B8"/>
<path d="M236.059 394.179L231.043 393.444L233.759 400.361L236.059 394.179Z" fill="#68FFE4"/>
<path d="M101.542 387.124L96.8305 393.892L103.734 394.439L101.542 387.124Z" fill="#B8B8B8"/>
<path d="M135.903 407.066L130.994 411.946L138.019 414.835L141.106 409.698L135.903 407.066Z" fill="#68FFE4"/>
<path d="M120.852 366.657L115.114 367.676L117.373 374.536L122.59 373.906L120.852 366.657Z" fill="#68FFE4"/>
<path d="M77.9578 382.738L72.9414 382.003L75.6574 388.92L77.9578 382.738Z" fill="#68FFE4"/>
<path d="M107.981 203.488L103.26 210.255L110.175 210.793L107.981 203.488Z" fill="#B8B8B8"/>
<path d="M142.333 223.428L137.425 228.298L144.459 231.199L147.546 226.062L142.333 223.428Z" fill="#68FFE4"/>
<path d="M58.6093 209.766L57.2209 212.828L62.8907 215.518L64.2824 209.193L58.6093 209.766Z" fill="#B8B8B8"/>
<path d="M76.2291 238.909L71.9994 239.219L73.6068 244.114L77.8464 243.805L76.2291 238.909Z" fill="#272727"/>
<path d="M84.3973 199.102L79.3809 198.367L82.0968 205.284L84.3973 199.102Z" fill="#68FFE4"/>
<path d="M254.204 243.781L249.483 250.548L256.396 251.096L254.204 243.781Z" fill="#B8B8B8"/>
<path d="M297.003 218.832L291.053 221.225L294.946 226.454L299.654 222.95L297.003 218.832Z" fill="#272727"/>
<path d="M332.604 338.689L327.885 345.446L334.788 345.993L332.604 338.689Z" fill="#B8B8B8"/>
<path d="M366.956 358.629L362.048 363.499L369.083 366.39L372.161 361.252L366.956 358.629Z" fill="#68FFE4"/>
<path d="M283.222 344.967L281.845 348.019L287.504 350.718L288.896 344.393L283.222 344.967Z" fill="#B8B8B8"/>
<path d="M300.854 374.1L296.613 374.419L298.231 379.315L302.471 378.997L300.854 374.1Z" fill="#272727"/>
<path d="M309.02 334.294L303.994 333.558L306.709 340.484L309.02 334.294Z" fill="#68FFE4"/>
<path d="M402.25 302.19L397.54 308.959L404.443 309.505L402.25 302.19Z" fill="#B8B8B8"/>
<path d="M352.877 308.479L351.5 311.532L357.158 314.23L358.55 307.905L352.877 308.479Z" fill="#B8B8B8"/>
<path d="M378.667 297.805L373.65 297.07L376.365 303.997L378.667 297.805Z" fill="#68FFE4"/>
<path d="M366.909 239.131L362.189 245.888L369.103 246.436L366.909 239.131Z" fill="#B8B8B8"/>
<path d="M401.26 259.071L396.353 263.941L403.386 266.841L406.465 261.693L401.26 259.071Z" fill="#68FFE4"/>
<path d="M335.159 274.552L330.919 274.86L332.537 279.757L336.776 279.448L335.159 274.552Z" fill="#272727"/>
<path d="M343.325 234.745L338.309 234.01L341.025 240.927L343.325 234.745Z" fill="#68FFE4"/>
<path d="M39.2057 381.862L34.4863 388.619L41.39 389.165L39.2057 381.862Z" fill="#B8B8B8"/>
<path d="M15.6141 377.465L10.5977 376.73L13.3122 383.657L15.6141 377.465Z" fill="#68FFE4"/>
<path d="M3.85597 318.791L-0.855026 325.559L6.05011 326.096L3.85597 318.791Z" fill="#B8B8B8"/>
<path d="M38.2175 338.732L33.3097 343.602L40.3336 346.501L43.4223 341.355L38.2175 338.732Z" fill="#68FFE4"/>
<path d="M268.62 412.544L262.67 414.937L266.565 420.156L271.271 416.662L268.62 412.544Z" fill="#272727"/>
<path d="M279.932 477.924L275.923 479.833L282.793 480.678L279.932 477.924Z" fill="#B8B8B8"/>
<path d="M315.708 488.148L311.333 489.377L318.546 491.061L321.089 489.564L315.708 488.148Z" fill="#68FFE4"/>
<path d="M231.85 475.397L230.773 476.331L236.621 477.804L237.388 475.744L231.85 475.397Z" fill="#B8B8B8"/>
<path d="M252.009 487.224L247.857 486.929L249.921 488.778L254.071 489.083L252.009 487.224Z" fill="#272727"/>
<path d="M256.259 474.152L251.242 473.417L254.572 476.078L256.259 474.152Z" fill="#68FFE4"/>
<path d="M172.85 466.48L168.843 468.379L175.703 469.222L172.85 466.48Z" fill="#B8B8B8"/>
<path d="M208.628 476.694L204.253 477.923L211.465 479.607L214.009 478.11L208.628 476.694Z" fill="#68FFE4"/>
<path d="M124.76 463.942L123.693 464.877L129.531 466.349L130.308 464.29L124.76 463.942Z" fill="#B8B8B8"/>
<path d="M149.179 462.698L144.152 461.961L147.492 464.624L149.179 462.698Z" fill="#68FFE4"/>
<path d="M15.8678 447.391L11.8602 449.29L18.7189 450.143L15.8678 447.391Z" fill="#B8B8B8"/>
<path d="M51.6452 457.615L47.2723 458.834L54.4746 460.516L57.0284 459.021L51.6452 457.615Z" fill="#68FFE4"/>
<path d="M32.9442 442.11L27.3828 441.922L30.267 444.518L35.3501 444.797L32.9442 442.11Z" fill="#68FFE4"/>
<path d="M183.028 472.196L177.39 472.461L181.728 474.653L186.036 473.88L183.028 472.196Z" fill="#272727"/>
<path d="M373.954 475.044L369.946 476.943L376.815 477.798L373.954 475.044Z" fill="#B8B8B8"/>
<path d="M409.729 485.258L405.355 486.487L412.567 488.171L415.111 486.674L409.729 485.258Z" fill="#68FFE4"/>
<path d="M325.873 472.507L324.796 473.441L330.644 474.914L331.411 472.853L325.873 472.507Z" fill="#B8B8B8"/>
<path d="M346.032 484.334L341.881 484.039L343.945 485.888L348.094 486.193L346.032 484.334Z" fill="#272727"/>
<path d="M350.28 471.262L345.264 470.527L348.603 473.19L350.28 471.262Z" fill="#68FFE4"/>
<path d="M266.872 463.59L262.864 465.489L269.723 466.342L266.872 463.59Z" fill="#B8B8B8"/>
<path d="M302.649 473.804L298.275 475.033L305.487 476.716L308.031 475.219L302.649 473.804Z" fill="#68FFE4"/>
<path d="M218.783 461.051L217.716 461.986L223.553 463.468L224.321 461.397L218.783 461.051Z" fill="#B8B8B8"/>
<path d="M243.19 459.806L238.174 459.071L241.513 461.734L243.19 459.806Z" fill="#68FFE4"/>
<path d="M109.891 444.501L105.884 446.4L112.742 447.253L109.891 444.501Z" fill="#B8B8B8"/>
<path d="M145.667 454.725L141.292 455.954L148.496 457.626L151.05 456.13L145.667 454.725Z" fill="#68FFE4"/>
<path d="M126.968 439.22L121.406 439.032L124.29 441.627L129.374 441.907L126.968 439.22Z" fill="#68FFE4"/>
<path d="M277.052 469.306L271.414 469.571L275.752 471.763L280.059 470.989L277.052 469.306Z" fill="#272727"/>
<path d="M218.235 484.307L214.227 486.206L221.086 487.06L218.235 484.307Z" fill="#B8B8B8"/>
<path d="M254.01 494.532L249.638 495.751L256.84 497.433L259.394 495.937L254.01 494.532Z" fill="#68FFE4"/>
<path d="M170.144 481.769L169.078 482.704L174.914 484.186L175.683 482.116L170.144 481.769Z" fill="#B8B8B8"/>
<path d="M190.313 493.598L186.162 493.303L188.224 495.161L192.366 495.455L190.313 493.598Z" fill="#272727"/>
<path d="M194.554 480.525L189.537 479.79L192.875 482.462L194.554 480.525Z" fill="#68FFE4"/>
<path d="M111.145 472.852L107.147 474.752L114.006 475.606L111.145 472.852Z" fill="#B8B8B8"/>
<path d="M146.92 483.076L142.557 484.296L149.76 485.978L152.314 484.482L146.92 483.076Z" fill="#68FFE4"/>
<path d="M63.0628 470.324L61.9975 471.25L67.8343 472.732L68.6026 470.661L63.0628 470.324Z" fill="#B8B8B8"/>
<path d="M87.4735 469.07L82.457 468.335L85.7949 471.007L87.4735 469.07Z" fill="#68FFE4"/>
<path d="M121.321 478.578L115.694 478.835L120.033 481.027L124.339 480.263L121.321 478.578Z" fill="#272727"/>
<path d="M288.555 263.722L283.646 268.602L290.681 271.492L293.759 266.354L288.555 263.722Z" fill="#68FFE4"/>
<path d="M273.505 223.313L267.765 224.341L270.026 231.192L275.242 230.561L273.505 223.313Z" fill="#68FFE4"/>
<path d="M204.822 250.058L203.443 253.121L209.103 255.81L210.493 249.495L204.822 250.058Z" fill="#B8B8B8"/>
<path d="M222.454 279.202L218.214 279.511L219.832 284.407L224.071 284.098L222.454 279.202Z" fill="#272727"/>
<path d="M230.62 239.396L225.604 238.661L228.31 245.576L230.62 239.396Z" fill="#68FFE4"/>
<path d="M60.2045 101.262L66.4168 95.835L59.8457 93.6392L60.2045 101.262Z" fill="#B8B8B8"/>
<path d="M12.6587 115.156L19.0047 114.266L16.4905 108.248L11.0744 110.517L12.6587 115.156Z" fill="#272727"/>
<path d="M31.68 73.6245L37.6169 70.0777L31.4854 65.5712L27.2558 69.8129L31.68 73.6245Z" fill="#68FFE4"/>
<path d="M36.5312 116.47L42.3564 116.859L41.8137 109.664L36.6017 109.022L36.5312 116.47Z" fill="#68FFE4"/>
<path d="M36.7338 261.461L42.9461 256.035L36.375 253.839L36.7338 261.461Z" fill="#B8B8B8"/>
<path d="M8.20929 233.824L14.1462 230.277L8.01471 225.771L3.78512 230.013L8.20929 233.824Z" fill="#68FFE4"/>
<path d="M13.0585 276.67L18.8838 277.058L18.341 269.864L13.1291 269.221L13.0585 276.67Z" fill="#68FFE4"/>
<path d="M263.318 305.878L269.53 300.451L262.959 298.256L263.318 305.878Z" fill="#B8B8B8"/>
<path d="M215.772 319.772L222.118 318.883L219.604 312.865L214.188 315.134L215.772 319.772Z" fill="#272727"/>
<path d="M234.793 278.241L240.73 274.694L234.599 270.188L230.369 274.43L234.793 278.241Z" fill="#68FFE4"/>
<path d="M4.98702 172.348L0.0777313 177.228L7.10313 180.117L10.1904 174.98L4.98702 172.348Z" fill="#68FFE4"/>
<path d="M75.8463 146.133L71.1254 152.9L78.039 153.448L75.8463 146.133Z" fill="#B8B8B8"/>
<path d="M26.474 152.412L25.0856 155.473L30.7555 158.163L32.1457 151.848L26.474 152.412Z" fill="#B8B8B8"/>
<path d="M44.0943 181.554L39.8647 181.864L41.4721 186.759L45.7116 186.45L44.0943 181.554Z" fill="#272727"/>
<path d="M52.2625 141.748L47.2461 141.013L49.9606 147.939L52.2625 141.748Z" fill="#68FFE4"/>
<path d="M56.4357 180.593L62.3726 177.046L56.251 172.541L52.02 176.793L56.4357 180.593Z" fill="#68FFE4"/>
<path d="M182.352 204.338L177.444 209.208L184.478 212.108L187.556 206.97L182.352 204.338Z" fill="#68FFE4"/>
<path d="M253.221 178.125L248.5 184.892L255.404 185.439L253.221 178.125Z" fill="#B8B8B8"/>
<path d="M203.839 184.403L202.461 187.465L208.121 190.154L209.511 183.839L203.839 184.403Z" fill="#B8B8B8"/>
<path d="M221.471 213.546L217.232 213.855L218.839 218.75L223.079 218.441L221.471 213.546Z" fill="#272727"/>
<path d="M229.628 173.738L224.611 173.003L227.327 179.92L229.628 173.738Z" fill="#68FFE4"/>
<path d="M233.801 212.584L239.748 209.038L233.616 204.532L229.387 208.773L233.801 212.584Z" fill="#68FFE4"/>
<path d="M162.44 61.7752L157.532 66.6452L164.568 69.5356L167.655 64.3989L162.44 61.7752Z" fill="#68FFE4"/>
<path d="M183.935 41.8412L182.548 44.8924L188.217 47.5926L189.609 41.2676L183.935 41.8412Z" fill="#B8B8B8"/>
<path d="M201.559 70.9737L197.318 71.2922L198.936 76.1884L203.177 75.8699L201.559 70.9737Z" fill="#272727"/>
<path d="M209.725 31.1769L204.709 30.4419L207.425 37.3587L209.725 31.1769Z" fill="#68FFE4"/>
<path d="M213.898 70.0124L219.834 66.4754L213.712 61.9704L209.482 66.2121L213.898 70.0124Z" fill="#68FFE4"/>
<path d="M345.977 70.6768L341.258 77.434L348.161 77.9806L345.977 70.6768Z" fill="#B8B8B8"/>
<path d="M434.429 68.9814L428.48 71.3642L432.373 76.5938L437.08 73.0992L434.429 68.9814Z" fill="#272727"/>
<path d="M380.331 90.6172L375.423 95.4872L382.447 98.3861L385.536 93.2395L380.331 90.6172Z" fill="#68FFE4"/>
<path d="M410.933 73.4523L405.193 74.4811L407.454 81.3312L412.67 80.7008L410.933 73.4523Z" fill="#68FFE4"/>
<path d="M296.596 76.9542L295.218 80.0069L300.877 82.7057L302.269 76.3806L296.596 76.9542Z" fill="#B8B8B8"/>
<path d="M314.229 106.088L309.988 106.407L311.606 111.303L315.835 110.993L314.229 106.088Z" fill="#272727"/>
<path d="M322.384 66.2899L317.367 65.5549L320.083 72.4717L322.384 66.2899Z" fill="#68FFE4"/>
<path d="M326.558 105.125L332.504 101.59L326.372 97.0835L322.143 101.325L326.558 105.125Z" fill="#68FFE4"/>
<path d="M239.643 321.087L245.468 321.475L244.925 314.281L239.713 313.638L239.643 321.087Z" fill="#68FFE4"/>
<path d="M109.645 107.08L111.719 104.443L106.875 100.459L103.995 106.253L109.645 107.08Z" fill="#B8B8B8"/>
<path d="M99.5548 74.5438L103.745 75.2588L103.366 70.1196L99.1758 69.4045L99.5548 74.5438Z" fill="#272727"/>
<path d="M82.0334 111.211L86.7345 113.133L85.7639 105.754L82.0334 111.211Z" fill="#68FFE4"/>
<path d="M96.019 49.9716L102.231 44.5449L95.6504 42.3477L96.019 49.9716Z" fill="#B8B8B8"/>
<path d="M48.4733 63.8657L54.8094 62.9748L52.2952 56.9567L46.8791 59.2255L48.4733 63.8657Z" fill="#272727"/>
<path d="M67.4846 22.333L73.4214 18.7862L67.2999 14.2812L63.0688 18.5328L67.4846 22.333Z" fill="#68FFE4"/>
<path d="M72.3438 65.1802L78.1591 65.5673L77.6263 58.3741L72.4045 57.7303L72.3438 65.1802Z" fill="#68FFE4"/>
<path d="M145.447 55.7888L147.532 53.1531L142.678 49.1674L139.808 54.9625L145.447 55.7888Z" fill="#B8B8B8"/>
<path d="M135.367 23.254L139.558 23.969L139.168 18.8382L134.979 18.1133L135.367 23.254Z" fill="#272727"/>
<path d="M117.847 59.9213L122.539 61.8417L121.576 54.4744L117.847 59.9213Z" fill="#68FFE4"/>
<path d="M129.677 330.98L135.889 325.553L129.318 323.357L129.677 330.98Z" fill="#B8B8B8"/>
<path d="M82.1313 344.873L88.4773 343.984L85.9632 337.966L80.5471 340.235L82.1313 344.873Z" fill="#272727"/>
<path d="M101.153 303.342L107.09 299.796L100.958 295.289L96.727 299.541L101.153 303.342Z" fill="#68FFE4"/>
<path d="M106.002 346.188L111.827 346.577L111.284 339.382L106.072 338.74L106.002 346.188Z" fill="#68FFE4"/>
<path d="M179.116 336.798L181.19 334.161L176.346 330.177L173.466 335.97L179.116 336.798Z" fill="#B8B8B8"/>
<path d="M169.035 304.263L173.216 304.977L172.836 299.847L168.646 299.123L169.035 304.263Z" fill="#272727"/>
<path d="M151.515 340.931L156.206 342.851L155.234 335.482L151.515 340.931Z" fill="#68FFE4"/>
</svg>
