<svg width="453" height="526" viewBox="0 0 453 526" fill="none" xmlns="http://www.w3.org/2000/svg">
<path d="M371.435 106.883L368.81 114.705L375.588 113.287L371.435 106.883Z" fill="#B8B8B8"/>
<path d="M405.472 70.8996L400.446 74.8687L405.653 78.7914L409.185 74.1036L405.472 70.8996Z" fill="#272727"/>
<path d="M410.012 116.361L406.673 122.415L414.237 123.209L415.744 117.412L410.012 116.361Z" fill="#68FFE4"/>
<path d="M384.197 81.811L378.977 84.4036L383.076 90.3505L387.904 88.2776L384.197 81.811Z" fill="#68FFE4"/>
<path d="M325.816 126.804L325.355 130.131L331.543 131.118L331.1 124.667L325.816 126.804Z" fill="#B8B8B8"/>
<path d="M350.936 149.808L346.954 151.298L349.884 155.541L353.865 154.052L350.936 149.808Z" fill="#272727"/>
<path d="M347.57 109.312L342.539 110.02L347.092 115.893L347.57 109.312Z" fill="#68FFE4"/>
<path d="M450.373 351.319L447.747 359.141L454.535 357.721L450.373 351.319Z" fill="#B8B8B8"/>
<path d="M404.754 371.24L404.293 374.567L410.491 375.553L410.047 369.101L404.754 371.24Z" fill="#B8B8B8"/>
<path d="M429.875 394.244L425.894 395.733L428.824 399.976L432.805 398.487L429.875 394.244Z" fill="#272727"/>
<path d="M426.509 353.748L421.488 354.454L426.032 360.338L426.509 353.748Z" fill="#68FFE4"/>
<path d="M197.57 267.375L194.943 275.187L201.731 273.767L197.57 267.375Z" fill="#B8B8B8"/>
<path d="M236.147 276.842L232.808 282.896L240.373 283.7L241.88 277.903L236.147 276.842Z" fill="#68FFE4"/>
<path d="M177.072 310.299L173.091 311.788L176.021 316.032L180.002 314.542L177.072 310.299Z" fill="#272727"/>
<path d="M173.706 269.803L168.686 270.51L173.228 276.384L173.706 269.803Z" fill="#68FFE4"/>
<path d="M216.494 140.399L213.878 148.22L220.656 146.802L216.494 140.399Z" fill="#B8B8B8"/>
<path d="M250.542 104.424L245.515 108.383L250.722 112.306L254.254 107.618L250.542 104.424Z" fill="#272727"/>
<path d="M255.08 149.875L251.741 155.929L259.296 156.724L260.813 150.926L255.08 149.875Z" fill="#68FFE4"/>
<path d="M229.265 115.325L224.047 117.928L228.144 123.865L232.972 121.792L229.265 115.325Z" fill="#68FFE4"/>
<path d="M433.197 169.61L430.57 177.422L437.358 176.002L433.197 169.61Z" fill="#B8B8B8"/>
<path d="M445.958 144.537L440.739 147.13L444.836 153.067L449.664 150.994L445.958 144.537Z" fill="#68FFE4"/>
<path d="M170.885 160.318L170.424 163.645L176.612 164.633L176.168 158.181L170.885 160.318Z" fill="#B8B8B8"/>
<path d="M196.004 183.323L192.023 184.812L194.943 189.056L198.924 187.567L196.004 183.323Z" fill="#272727"/>
<path d="M192.63 142.828L187.609 143.534L192.163 149.417L192.63 142.828Z" fill="#68FFE4"/>
<path d="M345.562 378.74L342.935 386.552L349.714 385.134L345.562 378.74Z" fill="#B8B8B8"/>
<path d="M384.137 388.208L380.798 394.262L388.364 395.066L389.871 389.269L384.137 388.208Z" fill="#68FFE4"/>
<path d="M299.943 398.661L299.482 401.988L305.67 402.975L305.227 396.524L299.943 398.661Z" fill="#B8B8B8"/>
<path d="M321.687 381.171L316.666 381.877L321.219 387.75L321.687 381.171Z" fill="#68FFE4"/>
<path d="M190.621 412.256L188.005 420.077L194.783 418.659L190.621 412.256Z" fill="#B8B8B8"/>
<path d="M229.205 421.722L225.868 427.786L233.422 428.581L234.939 422.783L229.205 421.722Z" fill="#68FFE4"/>
<path d="M203.39 387.182L198.17 389.775L202.269 395.722L207.097 393.649L203.39 387.182Z" fill="#68FFE4"/>
<path d="M166.755 414.685L161.734 415.391L166.287 421.264L166.755 414.685Z" fill="#68FFE4"/>
<path d="M145.121 234.229L142.495 242.051L149.282 240.622L145.121 234.229Z" fill="#B8B8B8"/>
<path d="M183.695 243.697L180.356 249.751L187.922 250.555L189.439 244.757L183.695 243.697Z" fill="#68FFE4"/>
<path d="M99.5111 254.148L99.0402 257.476L105.238 258.462L104.793 252.001L99.5111 254.148Z" fill="#B8B8B8"/>
<path d="M124.621 277.154L120.65 278.642L123.57 282.887L127.551 281.397L124.621 277.154Z" fill="#272727"/>
<path d="M121.257 236.658L116.236 237.364L120.789 243.237L121.257 236.658Z" fill="#68FFE4"/>
<path d="M296.773 231.744L294.147 239.566L300.936 238.147L296.773 231.744Z" fill="#B8B8B8"/>
<path d="M330.822 195.759L325.786 199.73L330.993 203.652L334.525 198.965L330.822 195.759Z" fill="#272727"/>
<path d="M398.715 300.754L396.087 308.566L402.866 307.148L398.715 300.754Z" fill="#B8B8B8"/>
<path d="M437.289 310.221L433.95 316.275L441.515 317.069L443.022 311.273L437.289 310.221Z" fill="#68FFE4"/>
<path d="M353.095 320.675L352.633 323.991L358.822 324.989L358.377 318.528L353.095 320.675Z" fill="#B8B8B8"/>
<path d="M378.213 343.669L374.233 345.168L377.163 349.411L381.143 347.912L378.213 343.669Z" fill="#272727"/>
<path d="M374.849 303.173L369.818 303.88L374.372 309.763L374.849 303.173Z" fill="#68FFE4"/>
<path d="M455.275 246.13L452.659 253.951L459.438 252.532L455.275 246.13Z" fill="#B8B8B8"/>
<path d="M409.667 266.059L409.205 269.376L415.394 270.373L414.95 263.912L409.667 266.059Z" fill="#B8B8B8"/>
<path d="M431.409 248.559L426.389 249.265L430.943 255.148L431.409 248.559Z" fill="#68FFE4"/>
<path d="M403.615 195.564L400.988 203.377L407.776 201.957L403.615 195.564Z" fill="#B8B8B8"/>
<path d="M442.19 205.032L438.851 211.086L446.416 211.89L447.922 206.084L442.19 205.032Z" fill="#68FFE4"/>
<path d="M383.115 238.49L379.134 239.979L382.064 244.222L386.045 242.733L383.115 238.49Z" fill="#272727"/>
<path d="M379.751 197.994L374.73 198.7L379.283 204.573L379.751 197.994Z" fill="#68FFE4"/>
<path d="M129.322 424.749L126.695 432.561L133.473 431.142L129.322 424.749Z" fill="#B8B8B8"/>
<path d="M83.7029 444.66L83.2419 447.986L89.4313 448.984L88.9867 442.523L83.7029 444.66Z" fill="#B8B8B8"/>
<path d="M105.446 427.169L100.426 427.875L104.98 433.758L105.446 427.169Z" fill="#68FFE4"/>
<path d="M77.6519 374.175L75.0361 381.996L81.8132 380.567L77.6519 374.175Z" fill="#B8B8B8"/>
<path d="M116.236 383.641L112.897 389.695L120.453 390.5L121.969 384.693L116.236 383.641Z" fill="#68FFE4"/>
<path d="M57.1623 417.099L53.1809 418.588L56.1008 422.832L60.0821 421.343L57.1623 417.099Z" fill="#272727"/>
<path d="M53.7881 376.604L48.7676 377.31L53.3203 383.183L53.7881 376.604Z" fill="#68FFE4"/>
<path d="M358.101 389.629L353.065 393.6L358.271 397.513L361.804 392.835L358.101 389.629Z" fill="#272727"/>
<path d="M387.355 449.185L384.045 452.145L390.876 451.022L387.355 449.185Z" fill="#B8B8B8"/>
<path d="M424.563 448.928L420.711 451.338L428.105 450.923L430.125 448.771L424.563 448.928Z" fill="#68FFE4"/>
<path d="M340.505 460.29L339.734 461.489L345.761 461.257L345.917 459.064L340.505 460.29Z" fill="#B8B8B8"/>
<path d="M363.178 465.967L359.112 466.852L361.612 468.045L365.68 467.17L363.178 465.967Z" fill="#272727"/>
<path d="M363.577 452.227L358.557 452.934L362.5 454.55L363.577 452.227Z" fill="#68FFE4"/>
<path d="M281.379 468.337L278.067 471.287L284.888 470.166L281.379 468.337Z" fill="#B8B8B8"/>
<path d="M318.586 468.071L314.734 470.481L322.129 470.067L324.149 467.914L318.586 468.071Z" fill="#68FFE4"/>
<path d="M234.518 479.435L233.758 480.632L239.774 480.402L239.94 478.207L234.518 479.435Z" fill="#B8B8B8"/>
<path d="M257.601 471.37L252.57 472.078L256.524 473.693L257.601 471.37Z" fill="#68FFE4"/>
<path d="M125.371 494.197L122.06 497.147L128.881 496.036L125.371 494.197Z" fill="#B8B8B8"/>
<path d="M162.578 493.94L158.725 496.341L166.11 495.928L168.139 493.774L162.578 493.94Z" fill="#68FFE4"/>
<path d="M140.271 484.325L134.881 485.709L138.379 487.388L143.336 486.226L140.271 484.325Z" fill="#68FFE4"/>
<path d="M292.755 470.958L287.42 472.799L292.2 473.682L296.115 471.727L292.755 470.958Z" fill="#272727"/>
<path d="M429.915 431.057L429.144 432.256L435.171 432.024L435.327 429.831L429.915 431.057Z" fill="#B8B8B8"/>
<path d="M452.586 436.734L448.52 437.619L451.02 438.812L455.088 437.937L452.586 436.734Z" fill="#272727"/>
<path d="M452.985 422.994L447.965 423.701L451.918 425.316L452.985 422.994Z" fill="#68FFE4"/>
<path d="M370.789 439.104L367.478 442.054L374.299 440.943L370.789 439.104Z" fill="#B8B8B8"/>
<path d="M407.994 438.838L404.143 441.248L411.537 440.834L413.557 438.681L407.994 438.838Z" fill="#68FFE4"/>
<path d="M323.928 450.202L323.168 451.399L329.186 451.179L329.34 448.976L323.928 450.202Z" fill="#B8B8B8"/>
<path d="M346.999 442.138L341.979 442.845L345.932 444.46L346.999 442.138Z" fill="#68FFE4"/>
<path d="M214.779 464.964L211.468 467.914L218.289 466.803L214.779 464.964Z" fill="#B8B8B8"/>
<path d="M251.986 464.707L248.135 467.117L255.518 466.694L257.548 464.54L251.986 464.707Z" fill="#68FFE4"/>
<path d="M229.679 455.092L224.29 456.476L227.788 458.155L232.744 456.993L229.679 455.092Z" fill="#68FFE4"/>
<path d="M382.164 441.725L376.828 443.566L381.608 444.449L385.524 442.494L382.164 441.725Z" fill="#272727"/>
<path d="M329.947 472.672L326.636 475.623L333.457 474.511L329.947 472.672Z" fill="#B8B8B8"/>
<path d="M367.154 472.415L363.301 474.816L370.686 474.403L372.715 472.249L367.154 472.415Z" fill="#68FFE4"/>
<path d="M283.086 483.77L282.326 484.967L288.344 484.747L288.498 482.544L283.086 483.77Z" fill="#B8B8B8"/>
<path d="M305.768 489.445L301.701 490.33L304.203 491.533L308.26 490.649L305.768 489.445Z" fill="#272727"/>
<path d="M306.157 475.707L301.137 476.413L305.092 478.038L306.157 475.707Z" fill="#68FFE4"/>
<path d="M223.961 491.817L220.659 494.766L227.481 493.654L223.961 491.817Z" fill="#B8B8B8"/>
<path d="M261.168 491.56L257.325 493.959L264.709 493.546L266.739 491.392L261.168 491.56Z" fill="#68FFE4"/>
<path d="M177.111 502.923L176.349 504.11L182.367 503.89L182.522 501.687L177.111 502.923Z" fill="#B8B8B8"/>
<path d="M200.181 494.85L195.16 495.556L199.115 497.181L200.181 494.85Z" fill="#68FFE4"/>
<path d="M67.9528 517.686L64.6416 520.636L71.4732 519.523L67.9528 517.686Z" fill="#B8B8B8"/>
<path d="M105.158 517.419L101.307 519.829L108.701 519.415L110.721 517.263L105.158 517.419Z" fill="#68FFE4"/>
<path d="M82.8629 507.813L77.4619 509.189L80.9614 510.877L85.9179 509.715L82.8629 507.813Z" fill="#68FFE4"/>
<path d="M235.337 494.447L230.01 496.277L234.79 497.16L238.707 495.215L235.337 494.447Z" fill="#272727"/>
<path d="M335.35 241.212L332.012 247.276L339.577 248.07L341.084 242.273L335.35 241.212Z" fill="#68FFE4"/>
<path d="M309.535 206.672L304.316 209.274L308.414 215.211L313.242 213.138L309.535 206.672Z" fill="#68FFE4"/>
<path d="M251.154 251.665L250.693 254.992L256.881 255.979L256.438 249.528L251.154 251.665Z" fill="#B8B8B8"/>
<path d="M276.276 274.669L272.294 276.159L275.224 280.402L279.205 278.912L276.276 274.669Z" fill="#272727"/>
<path d="M272.909 234.173L267.889 234.879L272.431 240.754L272.909 234.173Z" fill="#68FFE4"/>
<path d="M70.5089 149.579L74.943 142.624L68.0195 142.366L70.5089 149.579Z" fill="#B8B8B8"/>
<path d="M28.7928 176.292L34.632 173.653L30.5259 168.586L25.9671 172.287L28.7928 176.292Z" fill="#272727"/>
<path d="M35.3593 131.087L40.0581 126.013L32.9063 123.414L30.0413 128.674L35.3593 131.087Z" fill="#68FFE4"/>
<path d="M52.0705 170.836L57.7697 169.569L55.2242 162.818L50.0421 163.669L52.0705 170.836Z" fill="#68FFE4"/>
<path d="M93.0675 309.91L97.5016 302.955L90.5781 302.697L93.0675 309.91Z" fill="#B8B8B8"/>
<path d="M51.3533 336.623L57.1925 333.984L53.0864 328.916L48.5277 332.618L51.3533 336.623Z" fill="#272727"/>
<path d="M57.9179 291.417L62.6167 286.343L55.4649 283.744L52.5999 289.005L57.9179 291.417Z" fill="#68FFE4"/>
<path d="M74.6291 331.166L80.3283 329.9L77.7828 323.149L72.6007 323.999L74.6291 331.166Z" fill="#68FFE4"/>
<path d="M322.995 288.767L327.429 281.812L320.506 281.554L322.995 288.767Z" fill="#B8B8B8"/>
<path d="M281.281 315.48L287.12 312.841L283.014 307.773L278.455 311.475L281.281 315.48Z" fill="#272727"/>
<path d="M287.846 270.274L292.544 265.2L285.393 262.601L282.528 267.862L287.846 270.274Z" fill="#68FFE4"/>
<path d="M37.5255 233.332L34.1879 239.396L41.7424 240.191L43.2594 234.393L37.5255 233.332Z" fill="#68FFE4"/>
<path d="M98.1442 188.236L95.5185 196.058L102.307 194.638L98.1442 188.236Z" fill="#B8B8B8"/>
<path d="M52.5351 208.155L52.0642 211.483L58.2621 212.47L57.8189 206.018L52.5351 208.155Z" fill="#B8B8B8"/>
<path d="M77.6445 231.161L73.6731 232.649L76.593 236.893L80.5743 235.404L77.6445 231.161Z" fill="#272727"/>
<path d="M74.2803 190.665L69.2598 191.371L73.8139 197.254L74.2803 190.665Z" fill="#68FFE4"/>
<path d="M89.2166 226.766L93.9154 221.692L86.7735 219.091L83.9099 224.362L89.2166 226.766Z" fill="#68FFE4"/>
<path d="M216.727 214.116L213.388 220.17L220.953 220.974L222.461 215.177L216.727 214.116Z" fill="#68FFE4"/>
<path d="M277.355 169.018L274.729 176.84L281.508 175.422L277.355 169.018Z" fill="#B8B8B8"/>
<path d="M231.736 188.939L231.275 192.266L237.463 193.253L237.02 186.802L231.736 188.939Z" fill="#B8B8B8"/>
<path d="M256.856 211.943L252.874 213.433L255.794 217.677L259.775 216.188L256.856 211.943Z" fill="#272727"/>
<path d="M253.48 171.448L248.459 172.155L253.012 178.028L253.48 171.448Z" fill="#68FFE4"/>
<path d="M268.416 207.55L273.125 202.474L265.973 199.875L263.108 205.136L268.416 207.55Z" fill="#68FFE4"/>
<path d="M157.498 82.9183L154.159 88.9726L161.724 89.7664L163.241 83.9685L157.498 82.9183Z" fill="#68FFE4"/>
<path d="M172.517 57.7403L172.045 61.0584L178.244 62.0544L177.799 55.5933L172.517 57.7403Z" fill="#B8B8B8"/>
<path d="M197.625 80.7362L193.645 82.2354L196.575 86.4785L200.555 84.9794L197.625 80.7362Z" fill="#272727"/>
<path d="M194.263 40.2499L189.242 40.9563L193.795 46.8292L194.263 40.2499Z" fill="#68FFE4"/>
<path d="M209.196 76.3409L213.896 71.2766L206.754 68.6764L203.889 73.9369L209.196 76.3409Z" fill="#68FFE4"/>
<path d="M336.125 39.8091L333.498 47.6213L340.276 46.203L336.125 39.8091Z" fill="#B8B8B8"/>
<path d="M420.523 13.2908L415.486 17.2513L420.693 21.174L424.226 16.4962L420.523 13.2908Z" fill="#272727"/>
<path d="M374.699 49.2765L371.36 55.3308L378.916 56.1358L380.432 50.328L374.699 49.2765Z" fill="#68FFE4"/>
<path d="M399.234 24.1933L394.016 26.7958L398.113 32.7328L402.941 30.6599L399.234 24.1933Z" fill="#68FFE4"/>
<path d="M290.505 59.7297L290.043 63.0465L296.232 64.0438L295.787 57.5827L290.505 59.7297Z" fill="#B8B8B8"/>
<path d="M315.623 82.724L311.643 84.2232L314.573 88.4663L318.544 86.9785L315.623 82.724Z" fill="#272727"/>
<path d="M312.251 42.2394L307.23 42.9458L311.783 48.8187L312.251 42.2394Z" fill="#68FFE4"/>
<path d="M327.184 78.3304L331.894 73.2647L324.742 70.6659L321.877 75.9264L327.184 78.3304Z" fill="#68FFE4"/>
<path d="M304.557 310.023L310.256 308.757L307.711 302.006L302.528 302.856L304.557 310.023Z" fill="#68FFE4"/>
<path d="M119.587 141.25L120.836 138.136L115.067 135.676L113.933 142.046L119.587 141.25Z" fill="#B8B8B8"/>
<path d="M100.747 112.868L104.97 112.375L103.16 107.55L98.9375 108.043L100.747 112.868Z" fill="#272727"/>
<path d="M94.2554 152.984L99.3073 153.505L96.2994 146.698L94.2554 152.984Z" fill="#68FFE4"/>
<path d="M90.4407 90.2839L94.8748 83.3282L87.9414 83.0718L90.4407 90.2839Z" fill="#B8B8B8"/>
<path d="M48.7265 116.997L54.5558 114.359L50.4497 109.291L45.8909 112.993L48.7265 116.997Z" fill="#272727"/>
<path d="M55.2811 71.7923L59.9799 66.718L52.8379 64.1178L49.9743 69.3882L55.2811 71.7923Z" fill="#68FFE4"/>
<path d="M72.0023 111.54L77.6916 110.275L75.156 103.522L69.964 104.374L72.0023 111.54Z" fill="#68FFE4"/>
<path d="M139.509 81.956L140.767 78.8403L134.988 76.3815L133.865 82.7502L139.509 81.956Z" fill="#B8B8B8"/>
<path d="M120.681 53.5723L124.904 53.0791L123.085 48.2655L118.861 48.7488L120.681 53.5723Z" fill="#272727"/>
<path d="M114.188 93.6886L119.23 94.2111L116.233 87.4123L114.188 93.6886Z" fill="#68FFE4"/>
<path d="M201.819 350.463L206.254 343.507L199.33 343.25L201.819 350.463Z" fill="#B8B8B8"/>
<path d="M160.105 377.176L165.944 374.536L161.838 369.469L157.28 373.17L160.105 377.176Z" fill="#272727"/>
<path d="M166.67 331.97L171.369 326.896L164.217 324.297L161.353 329.567L166.67 331.97Z" fill="#68FFE4"/>
<path d="M183.381 371.719L189.08 370.453L186.535 363.702L181.353 364.552L183.381 371.719Z" fill="#68FFE4"/>
<path d="M250.898 342.133L252.146 339.019L246.377 336.559L245.244 342.929L250.898 342.133Z" fill="#B8B8B8"/>
<path d="M232.07 313.75L236.282 313.258L234.474 308.443L230.25 308.926L232.07 313.75Z" fill="#272727"/>
<path d="M225.574 353.866L230.616 354.388L227.61 347.591L225.574 353.866Z" fill="#68FFE4"/>
</svg>
