<svg width="86" height="86" viewBox="0 0 86 86" fill="none" xmlns="http://www.w3.org/2000/svg">
<g clip-path="url(#clip0_13377_114398)">
<path d="M52.4553 16.4218C52.6204 16.3867 52.7992 16.3487 52.9672 16.3274C57.6536 15.4463 63.6652 15.5917 71.4628 17.2409L78.5793 50.7211C69.3741 48.5372 62.8178 48.7376 57.7765 50.3842C55.933 50.9773 54.2905 51.7721 52.8147 52.6752L56.7144 40.5175C57.9997 40.7475 59.3374 40.7507 60.6854 40.4642C66.2164 39.2885 69.7677 33.8181 68.5924 28.2885C67.417 22.7589 61.9477 19.2059 56.4167 20.3816C50.8871 21.5569 47.3344 27.0276 48.5098 32.5572C49.2115 35.8585 51.4436 38.4462 54.3113 39.7632L49.3533 55.1937C48.5941 55.8151 47.8848 56.4691 47.1894 57.1201L40.0846 23.6949C42.7583 20.5819 46.1126 18.1006 50.9785 16.7788C51.4541 16.649 51.9464 16.53 52.4553 16.4218ZM23.2943 22.6202C23.8032 22.512 24.3151 22.4176 24.8024 22.3427C29.7852 21.5711 33.845 22.4765 37.5674 24.23L44.6722 57.6551C40.9578 56.3456 36.9709 55.3097 32.2606 55.8078C26.9855 56.354 20.9007 58.8406 13.3934 64.5768L6.27694 31.0966C12.7159 26.4213 18.1486 23.8433 22.7883 22.7421C22.9671 22.7041 23.1292 22.6553 23.2943 22.6202ZM56.943 22.8575C61.1356 21.9664 65.2247 24.6195 66.1164 28.8148C67.0082 33.0101 64.3517 37.0971 60.1591 37.9882C55.9638 38.88 51.8774 36.2263 50.9857 32.0309C50.0939 27.8356 52.7476 23.7493 56.943 22.8575ZM57.033 24.8367L56.6479 24.9186C60.495 26.7174 62.6628 29.6927 63.2905 33.5991C65.7406 27.5001 61.0867 24.0901 57.033 24.8367ZM60.9763 52.2487C65.3867 51.3544 71.139 51.4975 79.1816 53.5547L80.4242 59.4006C71.219 57.2168 64.6626 57.4171 59.6214 59.0637C57.1214 59.8826 55.0226 61.0332 53.1602 62.3492C53.985 63.0508 54.8283 63.9067 55.7066 64.9277L48.3751 66.486L51.4937 56.809C53.5344 55.1819 55.7849 53.7978 58.5817 52.8871C59.3344 52.6408 60.1372 52.4271 60.9763 52.2487ZM30.591 58.7073C31.2542 58.5807 31.8957 58.4875 32.5293 58.4247C37.3113 57.9258 41.2537 59.1581 45.3095 60.6537L45.3183 60.695C46.1018 60.2553 46.943 60.019 47.8004 59.9949L45.5277 67.0912L39.5855 68.3543C40.1711 67.051 40.7584 65.891 41.3886 64.8657C39.1353 64.4102 36.7362 64.2156 34.1055 64.4873C28.8303 65.0335 22.7456 67.5201 15.2383 73.2563L13.9957 67.4104C20.5307 62.2402 25.7521 59.7502 30.1646 58.7979L30.591 58.7073Z" fill="#272727"/>
</g>
<defs>
<clipPath id="clip0_13377_114398">
<rect width="72" height="72" fill="white" transform="matrix(-0.978148 0.207912 0.207912 0.978148 70.5449 0.270508)"/>
</clipPath>
</defs>
</svg>
